<svg xmlns="http://www.w3.org/2000/svg" viewBox="0 0 1600 900" width="1600" height="900" role="img">
  <rect width="1600" height="900" fill="#EFEBE3"/>
  <rect x="180" y="120" width="1240" height="700" fill="#FBFAF7" stroke="#1A1A1A" stroke-opacity="0.25" stroke-width="3"/>
  <rect x="220" y="170" width="420" height="18" fill="#B4472A"/>
  <rect x="220" y="250" width="651" height="10" fill="#1A1A1A" opacity="0.16"/>
  <rect x="220" y="282" width="900" height="10" fill="#1A1A1A" opacity="0.16"/>
  <rect x="220" y="314" width="758" height="10" fill="#1A1A1A" opacity="0.16"/>
  <rect x="220" y="346" width="478" height="10" fill="#1A1A1A" opacity="0.16"/>
  <rect x="220" y="378" width="1060" height="10" fill="#1A1A1A" opacity="0.16"/>
  <rect x="220" y="410" width="1063" height="10" fill="#1A1A1A" opacity="0.16"/>
  <rect x="220" y="442" width="995" height="10" fill="#1A1A1A" opacity="0.16"/>
  <rect x="220" y="474" width="979" height="10" fill="#1A1A1A" opacity="0.16"/>
  <rect x="220" y="506" width="670" height="10" fill="#1A1A1A" opacity="0.16"/>
  <rect x="220" y="538" width="410" height="10" fill="#1A1A1A" opacity="0.16"/>
  <rect x="220" y="570" width="522" height="10" fill="#1A1A1A" opacity="0.16"/>
  <rect x="220" y="602" width="729" height="10" fill="#1A1A1A" opacity="0.16"/>
  <rect x="220" y="634" width="776" height="10" fill="#1A1A1A" opacity="0.16"/>
  <rect x="220" y="666" width="412" height="10" fill="#1A1A1A" opacity="0.16"/>
  <rect x="220" y="698" width="577" height="10" fill="#1A1A1A" opacity="0.16"/>
  <rect x="220" y="730" width="910" height="10" fill="#1A1A1A" opacity="0.16"/>
  <rect x="220" y="762" width="793" height="10" fill="#1A1A1A" opacity="0.16"/>
  <rect x="220" y="794" width="558" height="10" fill="#1A1A1A" opacity="0.16"/>
  <text x="220" y="230" font-family="Helvetica, Arial, sans-serif" font-size="30" fill="#1A1A1A">Seau de traite — composition</text>
</svg>
