<svg xmlns="http://www.w3.org/2000/svg" viewBox="0 0 1600 900" width="1600" height="900" role="img">
  <rect width="1600" height="900" fill="#EFEBE3"/>
  <rect x="180" y="120" width="1240" height="700" fill="#FBFAF7" stroke="#1A1A1A" stroke-opacity="0.25" stroke-width="3"/>
  <rect x="220" y="170" width="420" height="18" fill="#B4472A"/>
  <rect x="220" y="250" width="410" height="10" fill="#1A1A1A" opacity="0.16"/>
  <rect x="220" y="282" width="434" height="10" fill="#1A1A1A" opacity="0.16"/>
  <rect x="220" y="314" width="757" height="10" fill="#1A1A1A" opacity="0.16"/>
  <rect x="220" y="346" width="961" height="10" fill="#1A1A1A" opacity="0.16"/>
  <rect x="220" y="378" width="810" height="10" fill="#1A1A1A" opacity="0.16"/>
  <rect x="220" y="410" width="534" height="10" fill="#1A1A1A" opacity="0.16"/>
  <rect x="220" y="442" width="579" height="10" fill="#1A1A1A" opacity="0.16"/>
  <rect x="220" y="474" width="505" height="10" fill="#1A1A1A" opacity="0.16"/>
  <rect x="220" y="506" width="748" height="10" fill="#1A1A1A" opacity="0.16"/>
  <rect x="220" y="538" width="518" height="10" fill="#1A1A1A" opacity="0.16"/>
  <rect x="220" y="570" width="691" height="10" fill="#1A1A1A" opacity="0.16"/>
  <rect x="220" y="602" width="603" height="10" fill="#1A1A1A" opacity="0.16"/>
  <rect x="220" y="634" width="941" height="10" fill="#1A1A1A" opacity="0.16"/>
  <rect x="220" y="666" width="470" height="10" fill="#1A1A1A" opacity="0.16"/>
  <rect x="220" y="698" width="509" height="10" fill="#1A1A1A" opacity="0.16"/>
  <rect x="220" y="730" width="694" height="10" fill="#1A1A1A" opacity="0.16"/>
  <rect x="220" y="762" width="1035" height="10" fill="#1A1A1A" opacity="0.16"/>
  <rect x="220" y="794" width="548" height="10" fill="#1A1A1A" opacity="0.16"/>
  <text x="220" y="230" font-family="Helvetica, Arial, sans-serif" font-size="30" fill="#1A1A1A">Etabli — composition</text>
</svg>
