<svg xmlns="http://www.w3.org/2000/svg" viewBox="0 0 1600 500" width="1600" height="500" role="img">
  <rect width="1600" height="500" fill="#FBFAF7"/>
  <rect x="80" y="216" width="1440" height="228" fill="#FFFFFF" stroke="#8A5A12" stroke-width="2" opacity="0.9"/>
  <rect x="80" y="216" width="1440" height="34" fill="#8A5A12" opacity="0.16"/>
  <line x1="320" y1="216" x2="320" y2="444" stroke="#8A5A12" stroke-width="1" opacity="0.35"/>
  <line x1="560" y1="216" x2="560" y2="444" stroke="#8A5A12" stroke-width="1" opacity="0.35"/>
  <line x1="800" y1="216" x2="800" y2="444" stroke="#8A5A12" stroke-width="1" opacity="0.35"/>
  <line x1="1040" y1="216" x2="1040" y2="444" stroke="#8A5A12" stroke-width="1" opacity="0.35"/>
  <line x1="1280" y1="216" x2="1280" y2="444" stroke="#8A5A12" stroke-width="1" opacity="0.35"/>
  <line x1="80" y1="282" x2="1520" y2="282" stroke="#8A5A12" stroke-width="1" opacity="0.22"/>
  <line x1="80" y1="314" x2="1520" y2="314" stroke="#8A5A12" stroke-width="1" opacity="0.22"/>
  <line x1="80" y1="346" x2="1520" y2="346" stroke="#8A5A12" stroke-width="1" opacity="0.22"/>
  <line x1="80" y1="378" x2="1520" y2="378" stroke="#8A5A12" stroke-width="1" opacity="0.22"/>
  <line x1="80" y1="410" x2="1520" y2="410" stroke="#8A5A12" stroke-width="1" opacity="0.22"/>
  <rect x="104" y="272" width="61" height="9" fill="#1A1A1A" opacity="0.28"/>
  <rect x="104" y="304" width="155" height="9" fill="#1A1A1A" opacity="0.28"/>
  <rect x="104" y="336" width="127" height="9" fill="#1A1A1A" opacity="0.28"/>
  <rect x="104" y="368" width="145" height="9" fill="#1A1A1A" opacity="0.28"/>
  <rect x="104" y="400" width="131" height="9" fill="#1A1A1A" opacity="0.28"/>
  <rect x="344" y="272" width="119" height="9" fill="#1A1A1A" opacity="0.28"/>
  <rect x="344" y="304" width="91" height="9" fill="#1A1A1A" opacity="0.28"/>
  <rect x="344" y="336" width="146" height="9" fill="#1A1A1A" opacity="0.28"/>
  <rect x="344" y="368" width="165" height="9" fill="#1A1A1A" opacity="0.28"/>
  <rect x="344" y="400" width="125" height="9" fill="#1A1A1A" opacity="0.28"/>
  <rect x="584" y="272" width="77" height="9" fill="#1A1A1A" opacity="0.28"/>
  <rect x="584" y="304" width="140" height="9" fill="#1A1A1A" opacity="0.28"/>
  <rect x="584" y="336" width="92" height="9" fill="#1A1A1A" opacity="0.28"/>
  <rect x="584" y="368" width="107" height="9" fill="#1A1A1A" opacity="0.28"/>
  <rect x="584" y="400" width="73" height="9" fill="#1A1A1A" opacity="0.28"/>
  <rect x="824" y="272" width="130" height="9" fill="#1A1A1A" opacity="0.28"/>
  <rect x="824" y="304" width="95" height="9" fill="#1A1A1A" opacity="0.28"/>
  <rect x="824" y="336" width="142" height="9" fill="#1A1A1A" opacity="0.28"/>
  <rect x="824" y="368" width="76" height="9" fill="#1A1A1A" opacity="0.28"/>
  <rect x="824" y="400" width="168" height="9" fill="#1A1A1A" opacity="0.28"/>
  <rect x="1064" y="272" width="69" height="9" fill="#1A1A1A" opacity="0.28"/>
  <rect x="1064" y="304" width="96" height="9" fill="#1A1A1A" opacity="0.28"/>
  <rect x="1064" y="336" width="83" height="9" fill="#1A1A1A" opacity="0.28"/>
  <rect x="1064" y="368" width="149" height="9" fill="#1A1A1A" opacity="0.28"/>
  <rect x="1064" y="400" width="65" height="9" fill="#1A1A1A" opacity="0.28"/>
  <rect x="1304" y="272" width="145" height="9" fill="#1A1A1A" opacity="0.28"/>
  <rect x="1304" y="304" width="152" height="9" fill="#1A1A1A" opacity="0.28"/>
  <rect x="1304" y="336" width="93" height="9" fill="#1A1A1A" opacity="0.28"/>
  <rect x="1304" y="368" width="146" height="9" fill="#1A1A1A" opacity="0.28"/>
  <rect x="1304" y="400" width="169" height="9" fill="#1A1A1A" opacity="0.28"/>
  <rect x="80" y="60" width="10" height="120" fill="#8A5A12"/>
  <text x="122" y="118" font-family="Georgia, serif" font-size="52" fill="#1A1A1A">What the mill left behind</text>
  <text x="122" y="164" font-family="Helvetica, Arial, sans-serif" font-size="22" fill="#8A5A12">The Highland Echo</text>
</svg>
