<svg xmlns="http://www.w3.org/2000/svg" viewBox="0 0 1600 500" width="1600" height="500" role="img">
  <rect width="1600" height="500" fill="#FBFAF7"/>
  <rect x="80" y="216" width="1440" height="228" fill="#FFFFFF" stroke="#8C2F39" stroke-width="2" opacity="0.9"/>
  <rect x="80" y="216" width="1440" height="34" fill="#8C2F39" opacity="0.16"/>
  <line x1="368" y1="216" x2="368" y2="444" stroke="#8C2F39" stroke-width="1" opacity="0.35"/>
  <line x1="656" y1="216" x2="656" y2="444" stroke="#8C2F39" stroke-width="1" opacity="0.35"/>
  <line x1="944" y1="216" x2="944" y2="444" stroke="#8C2F39" stroke-width="1" opacity="0.35"/>
  <line x1="1232" y1="216" x2="1232" y2="444" stroke="#8C2F39" stroke-width="1" opacity="0.35"/>
  <line x1="80" y1="282" x2="1520" y2="282" stroke="#8C2F39" stroke-width="1" opacity="0.22"/>
  <line x1="80" y1="314" x2="1520" y2="314" stroke="#8C2F39" stroke-width="1" opacity="0.22"/>
  <line x1="80" y1="346" x2="1520" y2="346" stroke="#8C2F39" stroke-width="1" opacity="0.22"/>
  <line x1="80" y1="378" x2="1520" y2="378" stroke="#8C2F39" stroke-width="1" opacity="0.22"/>
  <line x1="80" y1="410" x2="1520" y2="410" stroke="#8C2F39" stroke-width="1" opacity="0.22"/>
  <rect x="104" y="272" width="129" height="9" fill="#1A1A1A" opacity="0.28"/>
  <rect x="104" y="304" width="118" height="9" fill="#1A1A1A" opacity="0.28"/>
  <rect x="104" y="336" width="130" height="9" fill="#1A1A1A" opacity="0.28"/>
  <rect x="104" y="368" width="160" height="9" fill="#1A1A1A" opacity="0.28"/>
  <rect x="104" y="400" width="153" height="9" fill="#1A1A1A" opacity="0.28"/>
  <rect x="392" y="272" width="150" height="9" fill="#1A1A1A" opacity="0.28"/>
  <rect x="392" y="304" width="166" height="9" fill="#1A1A1A" opacity="0.28"/>
  <rect x="392" y="336" width="92" height="9" fill="#1A1A1A" opacity="0.28"/>
  <rect x="392" y="368" width="90" height="9" fill="#1A1A1A" opacity="0.28"/>
  <rect x="392" y="400" width="101" height="9" fill="#1A1A1A" opacity="0.28"/>
  <rect x="680" y="272" width="87" height="9" fill="#1A1A1A" opacity="0.28"/>
  <rect x="680" y="304" width="132" height="9" fill="#1A1A1A" opacity="0.28"/>
  <rect x="680" y="336" width="97" height="9" fill="#1A1A1A" opacity="0.28"/>
  <rect x="680" y="368" width="106" height="9" fill="#1A1A1A" opacity="0.28"/>
  <rect x="680" y="400" width="137" height="9" fill="#1A1A1A" opacity="0.28"/>
  <rect x="968" y="272" width="105" height="9" fill="#1A1A1A" opacity="0.28"/>
  <rect x="968" y="304" width="146" height="9" fill="#1A1A1A" opacity="0.28"/>
  <rect x="968" y="336" width="126" height="9" fill="#1A1A1A" opacity="0.28"/>
  <rect x="968" y="368" width="144" height="9" fill="#1A1A1A" opacity="0.28"/>
  <rect x="968" y="400" width="142" height="9" fill="#1A1A1A" opacity="0.28"/>
  <rect x="1256" y="272" width="143" height="9" fill="#1A1A1A" opacity="0.28"/>
  <rect x="1256" y="304" width="142" height="9" fill="#1A1A1A" opacity="0.28"/>
  <rect x="1256" y="336" width="132" height="9" fill="#1A1A1A" opacity="0.28"/>
  <rect x="1256" y="368" width="103" height="9" fill="#1A1A1A" opacity="0.28"/>
  <rect x="1256" y="400" width="73" height="9" fill="#1A1A1A" opacity="0.28"/>
  <rect x="80" y="60" width="10" height="120" fill="#8C2F39"/>
  <text x="122" y="118" font-family="Georgia, serif" font-size="52" fill="#1A1A1A">La vie publique</text>
  <text x="122" y="164" font-family="Helvetica, Arial, sans-serif" font-size="22" fill="#8C2F39">L'Echo des Hauts</text>
</svg>
