<svg xmlns="http://www.w3.org/2000/svg" viewBox="0 0 1600 900" width="1600" height="900" role="img">
  <rect width="1600" height="900" fill="#FBFAF7"/>
  <rect x="140" y="485" width="56" height="255" fill="#8A5A12" opacity="0.45"/>
  <rect x="232" y="149" width="56" height="591" fill="#8A5A12" opacity="0.49"/>
  <rect x="324" y="325" width="56" height="415" fill="#8A5A12" opacity="0.53"/>
  <rect x="416" y="603" width="56" height="137" fill="#8A5A12" opacity="0.57"/>
  <rect x="508" y="607" width="56" height="133" fill="#8A5A12" opacity="0.61"/>
  <rect x="600" y="212" width="56" height="528" fill="#8A5A12" opacity="0.65"/>
  <rect x="692" y="522" width="56" height="218" fill="#8A5A12" opacity="0.69"/>
  <rect x="784" y="262" width="56" height="478" fill="#8A5A12" opacity="0.73"/>
  <rect x="876" y="363" width="56" height="377" fill="#8A5A12" opacity="0.76"/>
  <rect x="968" y="447" width="56" height="293" fill="#8A5A12" opacity="0.80"/>
  <rect x="1060" y="459" width="56" height="281" fill="#8A5A12" opacity="0.84"/>
  <rect x="1152" y="359" width="56" height="381" fill="#8A5A12" opacity="0.88"/>
  <rect x="1244" y="196" width="56" height="544" fill="#8A5A12" opacity="0.92"/>
  <rect x="1336" y="525" width="56" height="215" fill="#8A5A12" opacity="0.96"/>
  <line x1="120" y1="740" x2="1480" y2="740" stroke="#1A1A1A" stroke-width="3"/>
  <text x="120" y="160" font-family="Georgia, serif" font-size="46" fill="#1A1A1A">Two wage levels, in constant euros</text>
</svg>
