<svg xmlns="http://www.w3.org/2000/svg" viewBox="0 0 1600 900" width="1600" height="900" role="img">
  <rect width="1600" height="900" fill="#FBFAF7"/>
  <text x="120" y="118" font-family="Georgia, serif" font-size="46" fill="#1A1A1A">Part des compagnies du plateau dans la programmation, 2007-2026</text>
  <rect x="133" y="227" width="42" height="493" fill="#5B3E7A" opacity="0.45"/>
  <text x="154.07999999999998" y="758" text-anchor="middle" font-family="Helvetica, Arial, sans-serif" font-size="24" fill="#1A1A1A" opacity="0.65">2007</text>
  <rect x="201" y="277" width="42" height="443" fill="#5B3E7A" opacity="0.48"/>
  <rect x="269" y="296" width="42" height="424" fill="#5B3E7A" opacity="0.50"/>
  <rect x="337" y="333" width="42" height="387" fill="#5B3E7A" opacity="0.53"/>
  <rect x="405" y="365" width="42" height="355" fill="#5B3E7A" opacity="0.56"/>
  <text x="426.08" y="758" text-anchor="middle" font-family="Helvetica, Arial, sans-serif" font-size="24" fill="#1A1A1A" opacity="0.65">2011</text>
  <rect x="473" y="377" width="42" height="343" fill="#5B3E7A" opacity="0.58"/>
  <rect x="541" y="421" width="42" height="299" fill="#5B3E7A" opacity="0.61"/>
  <rect x="609" y="446" width="42" height="274" fill="#5B3E7A" opacity="0.63"/>
  <rect x="677" y="464" width="42" height="256" fill="#5B3E7A" opacity="0.66"/>
  <text x="698.08" y="758" text-anchor="middle" font-family="Helvetica, Arial, sans-serif" font-size="24" fill="#1A1A1A" opacity="0.65">2015</text>
  <rect x="745" y="483" width="42" height="237" fill="#5B3E7A" opacity="0.69"/>
  <rect x="813" y="539" width="42" height="181" fill="#5B3E7A" opacity="0.71"/>
  <rect x="881" y="527" width="42" height="193" fill="#5B3E7A" opacity="0.74"/>
  <rect x="949" y="570" width="42" height="150" fill="#5B3E7A" opacity="0.77"/>
  <text x="970.08" y="758" text-anchor="middle" font-family="Helvetica, Arial, sans-serif" font-size="24" fill="#1A1A1A" opacity="0.65">2019</text>
  <rect x="1017" y="583" width="42" height="137" fill="#5B3E7A" opacity="0.79"/>
  <rect x="1085" y="614" width="42" height="106" fill="#5B3E7A" opacity="0.82"/>
  <rect x="1153" y="626" width="42" height="94" fill="#5B3E7A" opacity="0.84"/>
  <rect x="1221" y="645" width="42" height="75" fill="#5B3E7A" opacity="0.87"/>
  <text x="1242.08" y="758" text-anchor="middle" font-family="Helvetica, Arial, sans-serif" font-size="24" fill="#1A1A1A" opacity="0.65">2023</text>
  <rect x="1289" y="664" width="42" height="56" fill="#5B3E7A" opacity="0.90"/>
  <rect x="1357" y="670" width="42" height="50" fill="#5B3E7A" opacity="0.92"/>
  <rect x="1425" y="670" width="42" height="50" fill="#5B3E7A" opacity="0.95"/>
  <line x1="100" y1="720" x2="1500" y2="720" stroke="#1A1A1A" stroke-width="3"/>
  <text x="120" y="838" font-family="Helvetica, Arial, sans-serif" font-size="30" fill="#5B3E7A">De onze spectacles sur quatorze a deux sur vingt-quatre</text>
</svg>
