<svg xmlns="http://www.w3.org/2000/svg" viewBox="0 0 1600 900" width="1600" height="900" role="img">
  <rect width="1600" height="900" fill="#FBFAF7"/>
  <text x="120" y="118" font-family="Georgia, serif" font-size="46" fill="#1A1A1A">La tournee : neuf salles des fetes, quarante-deux seances</text>
  <path d="M 280 300 L 520 220 L 790 300 L 1040 250 L 1290 360 L 1160 570 L 880 640 L 600 590 L 340 520 Z" fill="none" stroke="#5B3E7A" stroke-width="5" opacity="0.55" stroke-dasharray="16 12"/>
  <circle cx="280" cy="300" r="26" fill="#5B3E7A" opacity="0.40"/>
  <circle cx="280" cy="300" r="26" fill="none" stroke="#5B3E7A" stroke-width="4"/>
  <text x="280" y="311" text-anchor="middle" font-family="Helvetica, Arial, sans-serif" font-size="28" fill="#FBFAF7">1</text>
  <circle cx="520" cy="220" r="26" fill="#5B3E7A" opacity="0.46"/>
  <circle cx="520" cy="220" r="26" fill="none" stroke="#5B3E7A" stroke-width="4"/>
  <text x="520" y="231" text-anchor="middle" font-family="Helvetica, Arial, sans-serif" font-size="28" fill="#FBFAF7">2</text>
  <circle cx="790" cy="300" r="26" fill="#5B3E7A" opacity="0.52"/>
  <circle cx="790" cy="300" r="26" fill="none" stroke="#5B3E7A" stroke-width="4"/>
  <text x="790" y="311" text-anchor="middle" font-family="Helvetica, Arial, sans-serif" font-size="28" fill="#FBFAF7">3</text>
  <circle cx="1040" cy="250" r="26" fill="#5B3E7A" opacity="0.58"/>
  <circle cx="1040" cy="250" r="26" fill="none" stroke="#5B3E7A" stroke-width="4"/>
  <text x="1040" y="261" text-anchor="middle" font-family="Helvetica, Arial, sans-serif" font-size="28" fill="#FBFAF7">4</text>
  <circle cx="1290" cy="360" r="26" fill="#5B3E7A" opacity="0.64"/>
  <circle cx="1290" cy="360" r="26" fill="none" stroke="#5B3E7A" stroke-width="4"/>
  <text x="1290" y="371" text-anchor="middle" font-family="Helvetica, Arial, sans-serif" font-size="28" fill="#FBFAF7">5</text>
  <circle cx="1160" cy="570" r="26" fill="#5B3E7A" opacity="0.70"/>
  <circle cx="1160" cy="570" r="26" fill="none" stroke="#5B3E7A" stroke-width="4"/>
  <text x="1160" y="581" text-anchor="middle" font-family="Helvetica, Arial, sans-serif" font-size="28" fill="#FBFAF7">6</text>
  <circle cx="880" cy="640" r="26" fill="#5B3E7A" opacity="0.76"/>
  <circle cx="880" cy="640" r="26" fill="none" stroke="#5B3E7A" stroke-width="4"/>
  <text x="880" y="651" text-anchor="middle" font-family="Helvetica, Arial, sans-serif" font-size="28" fill="#FBFAF7">7</text>
  <circle cx="600" cy="590" r="26" fill="#5B3E7A" opacity="0.82"/>
  <circle cx="600" cy="590" r="26" fill="none" stroke="#5B3E7A" stroke-width="4"/>
  <text x="600" y="601" text-anchor="middle" font-family="Helvetica, Arial, sans-serif" font-size="28" fill="#FBFAF7">8</text>
  <circle cx="340" cy="520" r="26" fill="#5B3E7A" opacity="0.88"/>
  <circle cx="340" cy="520" r="26" fill="none" stroke="#5B3E7A" stroke-width="4"/>
  <text x="340" y="531" text-anchor="middle" font-family="Helvetica, Arial, sans-serif" font-size="28" fill="#FBFAF7">9</text>
  <text x="120" y="838" font-family="Helvetica, Arial, sans-serif" font-size="30" fill="#5B3E7A">Geometrie inventee ; aucun trace reel n est represente</text>
</svg>
