<svg xmlns="http://www.w3.org/2000/svg" viewBox="0 0 1600 900" width="1600" height="900" role="img">
  <rect width="1600" height="900" fill="#EFEBE3"/>
  <rect x="180" y="120" width="1240" height="700" fill="#FBFAF7" stroke="#1A1A1A" stroke-opacity="0.25" stroke-width="3"/>
  <rect x="220" y="170" width="420" height="18" fill="#5B3E7A"/>
  <line x1="413" y1="250" x2="413" y2="800" stroke="#1A1A1A" stroke-opacity="0.18" stroke-width="2"/>
  <line x1="607" y1="250" x2="607" y2="800" stroke="#1A1A1A" stroke-opacity="0.18" stroke-width="2"/>
  <line x1="800" y1="250" x2="800" y2="800" stroke="#1A1A1A" stroke-opacity="0.18" stroke-width="2"/>
  <line x1="993" y1="250" x2="993" y2="800" stroke="#1A1A1A" stroke-opacity="0.18" stroke-width="2"/>
  <line x1="1187" y1="250" x2="1187" y2="800" stroke="#1A1A1A" stroke-opacity="0.18" stroke-width="2"/>
  <line x1="220" y1="250" x2="1380" y2="250" stroke="#1A1A1A" stroke-opacity="0.18" stroke-width="2"/>
  <line x1="220" y1="300" x2="1380" y2="300" stroke="#1A1A1A" stroke-opacity="0.18" stroke-width="2"/>
  <line x1="220" y1="350" x2="1380" y2="350" stroke="#1A1A1A" stroke-opacity="0.18" stroke-width="2"/>
  <line x1="220" y1="400" x2="1380" y2="400" stroke="#1A1A1A" stroke-opacity="0.18" stroke-width="2"/>
  <line x1="220" y1="450" x2="1380" y2="450" stroke="#1A1A1A" stroke-opacity="0.18" stroke-width="2"/>
  <line x1="220" y1="500" x2="1380" y2="500" stroke="#1A1A1A" stroke-opacity="0.18" stroke-width="2"/>
  <line x1="220" y1="550" x2="1380" y2="550" stroke="#1A1A1A" stroke-opacity="0.18" stroke-width="2"/>
  <line x1="220" y1="600" x2="1380" y2="600" stroke="#1A1A1A" stroke-opacity="0.18" stroke-width="2"/>
  <line x1="220" y1="650" x2="1380" y2="650" stroke="#1A1A1A" stroke-opacity="0.18" stroke-width="2"/>
  <line x1="220" y1="700" x2="1380" y2="700" stroke="#1A1A1A" stroke-opacity="0.18" stroke-width="2"/>
  <line x1="220" y1="750" x2="1380" y2="750" stroke="#1A1A1A" stroke-opacity="0.18" stroke-width="2"/>
  <line x1="220" y1="800" x2="1380" y2="800" stroke="#1A1A1A" stroke-opacity="0.18" stroke-width="2"/>
  <rect x="236" y="272" width="107" height="9" fill="#1A1A1A" opacity="0.16"/>
  <rect x="429" y="272" width="100" height="9" fill="#1A1A1A" opacity="0.16"/>
  <rect x="622" y="272" width="94" height="9" fill="#1A1A1A" opacity="0.16"/>
  <rect x="815" y="272" width="141" height="9" fill="#1A1A1A" opacity="0.16"/>
  <rect x="1008" y="272" width="71" height="9" fill="#1A1A1A" opacity="0.16"/>
  <rect x="1201" y="272" width="116" height="9" fill="#1A1A1A" opacity="0.16"/>
  <rect x="236" y="322" width="73" height="9" fill="#1A1A1A" opacity="0.16"/>
  <rect x="429" y="322" width="62" height="9" fill="#1A1A1A" opacity="0.16"/>
  <rect x="622" y="322" width="113" height="9" fill="#1A1A1A" opacity="0.16"/>
  <rect x="815" y="322" width="137" height="9" fill="#1A1A1A" opacity="0.16"/>
  <rect x="1008" y="322" width="143" height="9" fill="#1A1A1A" opacity="0.16"/>
  <rect x="1201" y="322" width="131" height="9" fill="#1A1A1A" opacity="0.16"/>
  <rect x="236" y="372" width="130" height="9" fill="#1A1A1A" opacity="0.16"/>
  <rect x="429" y="372" width="122" height="9" fill="#1A1A1A" opacity="0.16"/>
  <rect x="622" y="372" width="114" height="9" fill="#1A1A1A" opacity="0.16"/>
  <rect x="815" y="372" width="87" height="9" fill="#1A1A1A" opacity="0.16"/>
  <rect x="1008" y="372" width="62" height="9" fill="#1A1A1A" opacity="0.16"/>
  <rect x="1201" y="372" width="146" height="9" fill="#1A1A1A" opacity="0.16"/>
  <rect x="236" y="422" width="97" height="9" fill="#1A1A1A" opacity="0.16"/>
  <rect x="429" y="422" width="91" height="9" fill="#1A1A1A" opacity="0.16"/>
  <rect x="622" y="422" width="106" height="9" fill="#1A1A1A" opacity="0.16"/>
  <rect x="815" y="422" width="131" height="9" fill="#1A1A1A" opacity="0.16"/>
  <rect x="1008" y="422" width="76" height="9" fill="#1A1A1A" opacity="0.16"/>
  <rect x="1201" y="422" width="125" height="9" fill="#1A1A1A" opacity="0.16"/>
  <rect x="236" y="472" width="75" height="9" fill="#1A1A1A" opacity="0.16"/>
  <rect x="429" y="472" width="122" height="9" fill="#1A1A1A" opacity="0.16"/>
  <rect x="622" y="472" width="93" height="9" fill="#1A1A1A" opacity="0.16"/>
  <rect x="815" y="472" width="69" height="9" fill="#1A1A1A" opacity="0.16"/>
  <rect x="1008" y="472" width="110" height="9" fill="#1A1A1A" opacity="0.16"/>
  <rect x="1201" y="472" width="105" height="9" fill="#1A1A1A" opacity="0.16"/>
  <rect x="236" y="522" width="76" height="9" fill="#1A1A1A" opacity="0.16"/>
  <rect x="429" y="522" width="135" height="9" fill="#1A1A1A" opacity="0.16"/>
  <rect x="622" y="522" width="113" height="9" fill="#1A1A1A" opacity="0.16"/>
  <rect x="815" y="522" width="97" height="9" fill="#1A1A1A" opacity="0.16"/>
  <rect x="1008" y="522" width="96" height="9" fill="#1A1A1A" opacity="0.16"/>
  <rect x="1201" y="522" width="67" height="9" fill="#1A1A1A" opacity="0.16"/>
  <rect x="236" y="572" width="79" height="9" fill="#1A1A1A" opacity="0.16"/>
  <rect x="429" y="572" width="95" height="9" fill="#1A1A1A" opacity="0.16"/>
  <rect x="622" y="572" width="105" height="9" fill="#1A1A1A" opacity="0.16"/>
  <rect x="815" y="572" width="103" height="9" fill="#1A1A1A" opacity="0.16"/>
  <rect x="1008" y="572" width="63" height="9" fill="#1A1A1A" opacity="0.16"/>
  <rect x="1201" y="572" width="114" height="9" fill="#1A1A1A" opacity="0.16"/>
  <rect x="236" y="622" width="76" height="9" fill="#1A1A1A" opacity="0.16"/>
  <rect x="429" y="622" width="90" height="9" fill="#1A1A1A" opacity="0.16"/>
  <rect x="622" y="622" width="98" height="9" fill="#1A1A1A" opacity="0.16"/>
  <rect x="815" y="622" width="96" height="9" fill="#1A1A1A" opacity="0.16"/>
  <rect x="1008" y="622" width="72" height="9" fill="#1A1A1A" opacity="0.16"/>
  <rect x="1201" y="622" width="92" height="9" fill="#1A1A1A" opacity="0.16"/>
  <rect x="236" y="672" width="106" height="9" fill="#1A1A1A" opacity="0.16"/>
  <rect x="429" y="672" width="135" height="9" fill="#1A1A1A" opacity="0.16"/>
  <rect x="622" y="672" width="115" height="9" fill="#1A1A1A" opacity="0.16"/>
  <rect x="815" y="672" width="108" height="9" fill="#1A1A1A" opacity="0.16"/>
  <rect x="1008" y="672" width="138" height="9" fill="#1A1A1A" opacity="0.16"/>
  <rect x="1201" y="672" width="145" height="9" fill="#1A1A1A" opacity="0.16"/>
  <rect x="236" y="722" width="145" height="9" fill="#1A1A1A" opacity="0.16"/>
  <rect x="429" y="722" width="100" height="9" fill="#1A1A1A" opacity="0.16"/>
  <rect x="622" y="722" width="93" height="9" fill="#1A1A1A" opacity="0.16"/>
  <rect x="815" y="722" width="121" height="9" fill="#1A1A1A" opacity="0.16"/>
  <rect x="1008" y="722" width="128" height="9" fill="#1A1A1A" opacity="0.16"/>
  <rect x="1201" y="722" width="135" height="9" fill="#1A1A1A" opacity="0.16"/>
  <rect x="236" y="772" width="85" height="9" fill="#1A1A1A" opacity="0.16"/>
  <rect x="429" y="772" width="128" height="9" fill="#1A1A1A" opacity="0.16"/>
  <rect x="622" y="772" width="91" height="9" fill="#1A1A1A" opacity="0.16"/>
  <rect x="815" y="772" width="147" height="9" fill="#1A1A1A" opacity="0.16"/>
  <rect x="1008" y="772" width="105" height="9" fill="#1A1A1A" opacity="0.16"/>
  <rect x="1201" y="772" width="80" height="9" fill="#1A1A1A" opacity="0.16"/>
  <text x="220" y="230" font-family="Helvetica, Arial, sans-serif" font-size="30" fill="#1A1A1A">Proces-verbal d'inspection detaillee, 2013 — cotation des six piles, reconstitution</text>
</svg>
