<svg xmlns="http://www.w3.org/2000/svg" viewBox="0 0 1600 900" width="1600" height="900" role="img">
  <rect width="1600" height="900" fill="#EFEBE3"/>
  <rect x="180" y="120" width="1240" height="700" fill="#FBFAF7" stroke="#1A1A1A" stroke-opacity="0.25" stroke-width="3"/>
  <rect x="220" y="170" width="420" height="18" fill="#5B3E7A"/>
  <text x="240" y="242" font-family="Georgia, serif" font-size="38" fill="#1A1A1A">Vingt editions, spectacle par spectacle</text>
  <text x="286" y="306" text-anchor="end" font-family="Helvetica, Arial, sans-serif" font-size="22" fill="#1A1A1A" opacity="0.55">2007</text>
  <rect x="306" y="288" width="34" height="22" fill="#5B3E7A" opacity="0.85"/>
  <rect x="350" y="288" width="34" height="22" fill="#5B3E7A" opacity="0.85"/>
  <rect x="394" y="288" width="34" height="22" fill="#5B3E7A" opacity="0.85"/>
  <rect x="438" y="288" width="34" height="22" fill="#5B3E7A" opacity="0.85"/>
  <rect x="482" y="288" width="34" height="22" fill="#5B3E7A" opacity="0.85"/>
  <rect x="526" y="288" width="34" height="22" fill="#5B3E7A" opacity="0.85"/>
  <rect x="570" y="288" width="34" height="22" fill="#5B3E7A" opacity="0.85"/>
  <rect x="614" y="288" width="34" height="22" fill="#5B3E7A" opacity="0.85"/>
  <rect x="658" y="288" width="34" height="22" fill="#5B3E7A" opacity="0.85"/>
  <rect x="702" y="288" width="34" height="22" fill="#5B3E7A" opacity="0.85"/>
  <rect x="746" y="288" width="34" height="22" fill="#5B3E7A" opacity="0.85"/>
  <rect x="790" y="288" width="34" height="22" fill="#5B3E7A" opacity="0.2"/>
  <rect x="834" y="288" width="34" height="22" fill="#5B3E7A" opacity="0.2"/>
  <rect x="878" y="288" width="34" height="22" fill="#5B3E7A" opacity="0.2"/>
  <text x="286" y="332" text-anchor="end" font-family="Helvetica, Arial, sans-serif" font-size="22" fill="#1A1A1A" opacity="0.55">2008</text>
  <rect x="306" y="314" width="34" height="22" fill="#5B3E7A" opacity="0.85"/>
  <rect x="350" y="314" width="34" height="22" fill="#5B3E7A" opacity="0.85"/>
  <rect x="394" y="314" width="34" height="22" fill="#5B3E7A" opacity="0.85"/>
  <rect x="438" y="314" width="34" height="22" fill="#5B3E7A" opacity="0.85"/>
  <rect x="482" y="314" width="34" height="22" fill="#5B3E7A" opacity="0.85"/>
  <rect x="526" y="314" width="34" height="22" fill="#5B3E7A" opacity="0.85"/>
  <rect x="570" y="314" width="34" height="22" fill="#5B3E7A" opacity="0.85"/>
  <rect x="614" y="314" width="34" height="22" fill="#5B3E7A" opacity="0.85"/>
  <rect x="658" y="314" width="34" height="22" fill="#5B3E7A" opacity="0.85"/>
  <rect x="702" y="314" width="34" height="22" fill="#5B3E7A" opacity="0.85"/>
  <rect x="746" y="314" width="34" height="22" fill="#5B3E7A" opacity="0.2"/>
  <rect x="790" y="314" width="34" height="22" fill="#5B3E7A" opacity="0.2"/>
  <rect x="834" y="314" width="34" height="22" fill="#5B3E7A" opacity="0.2"/>
  <rect x="878" y="314" width="34" height="22" fill="#5B3E7A" opacity="0.2"/>
  <text x="286" y="358" text-anchor="end" font-family="Helvetica, Arial, sans-serif" font-size="22" fill="#1A1A1A" opacity="0.55">2009</text>
  <rect x="306" y="340" width="34" height="22" fill="#5B3E7A" opacity="0.85"/>
  <rect x="350" y="340" width="34" height="22" fill="#5B3E7A" opacity="0.85"/>
  <rect x="394" y="340" width="34" height="22" fill="#5B3E7A" opacity="0.85"/>
  <rect x="438" y="340" width="34" height="22" fill="#5B3E7A" opacity="0.85"/>
  <rect x="482" y="340" width="34" height="22" fill="#5B3E7A" opacity="0.85"/>
  <rect x="526" y="340" width="34" height="22" fill="#5B3E7A" opacity="0.85"/>
  <rect x="570" y="340" width="34" height="22" fill="#5B3E7A" opacity="0.85"/>
  <rect x="614" y="340" width="34" height="22" fill="#5B3E7A" opacity="0.85"/>
  <rect x="658" y="340" width="34" height="22" fill="#5B3E7A" opacity="0.85"/>
  <rect x="702" y="340" width="34" height="22" fill="#5B3E7A" opacity="0.85"/>
  <rect x="746" y="340" width="34" height="22" fill="#5B3E7A" opacity="0.85"/>
  <rect x="790" y="340" width="34" height="22" fill="#5B3E7A" opacity="0.2"/>
  <rect x="834" y="340" width="34" height="22" fill="#5B3E7A" opacity="0.2"/>
  <rect x="878" y="340" width="34" height="22" fill="#5B3E7A" opacity="0.2"/>
  <rect x="922" y="340" width="34" height="22" fill="#5B3E7A" opacity="0.2"/>
  <rect x="966" y="340" width="34" height="22" fill="#5B3E7A" opacity="0.2"/>
  <text x="286" y="384" text-anchor="end" font-family="Helvetica, Arial, sans-serif" font-size="22" fill="#1A1A1A" opacity="0.55">2010</text>
  <rect x="306" y="366" width="34" height="22" fill="#5B3E7A" opacity="0.85"/>
  <rect x="350" y="366" width="34" height="22" fill="#5B3E7A" opacity="0.85"/>
  <rect x="394" y="366" width="34" height="22" fill="#5B3E7A" opacity="0.85"/>
  <rect x="438" y="366" width="34" height="22" fill="#5B3E7A" opacity="0.85"/>
  <rect x="482" y="366" width="34" height="22" fill="#5B3E7A" opacity="0.85"/>
  <rect x="526" y="366" width="34" height="22" fill="#5B3E7A" opacity="0.85"/>
  <rect x="570" y="366" width="34" height="22" fill="#5B3E7A" opacity="0.85"/>
  <rect x="614" y="366" width="34" height="22" fill="#5B3E7A" opacity="0.85"/>
  <rect x="658" y="366" width="34" height="22" fill="#5B3E7A" opacity="0.85"/>
  <rect x="702" y="366" width="34" height="22" fill="#5B3E7A" opacity="0.85"/>
  <rect x="746" y="366" width="34" height="22" fill="#5B3E7A" opacity="0.2"/>
  <rect x="790" y="366" width="34" height="22" fill="#5B3E7A" opacity="0.2"/>
  <rect x="834" y="366" width="34" height="22" fill="#5B3E7A" opacity="0.2"/>
  <rect x="878" y="366" width="34" height="22" fill="#5B3E7A" opacity="0.2"/>
  <rect x="922" y="366" width="34" height="22" fill="#5B3E7A" opacity="0.2"/>
  <rect x="966" y="366" width="34" height="22" fill="#5B3E7A" opacity="0.2"/>
  <text x="286" y="410" text-anchor="end" font-family="Helvetica, Arial, sans-serif" font-size="22" fill="#1A1A1A" opacity="0.55">2011</text>
  <rect x="306" y="392" width="34" height="22" fill="#5B3E7A" opacity="0.85"/>
  <rect x="350" y="392" width="34" height="22" fill="#5B3E7A" opacity="0.85"/>
  <rect x="394" y="392" width="34" height="22" fill="#5B3E7A" opacity="0.85"/>
  <rect x="438" y="392" width="34" height="22" fill="#5B3E7A" opacity="0.85"/>
  <rect x="482" y="392" width="34" height="22" fill="#5B3E7A" opacity="0.85"/>
  <rect x="526" y="392" width="34" height="22" fill="#5B3E7A" opacity="0.85"/>
  <rect x="570" y="392" width="34" height="22" fill="#5B3E7A" opacity="0.85"/>
  <rect x="614" y="392" width="34" height="22" fill="#5B3E7A" opacity="0.85"/>
  <rect x="658" y="392" width="34" height="22" fill="#5B3E7A" opacity="0.85"/>
  <rect x="702" y="392" width="34" height="22" fill="#5B3E7A" opacity="0.85"/>
  <rect x="746" y="392" width="34" height="22" fill="#5B3E7A" opacity="0.2"/>
  <rect x="790" y="392" width="34" height="22" fill="#5B3E7A" opacity="0.2"/>
  <rect x="834" y="392" width="34" height="22" fill="#5B3E7A" opacity="0.2"/>
  <rect x="878" y="392" width="34" height="22" fill="#5B3E7A" opacity="0.2"/>
  <rect x="922" y="392" width="34" height="22" fill="#5B3E7A" opacity="0.2"/>
  <rect x="966" y="392" width="34" height="22" fill="#5B3E7A" opacity="0.2"/>
  <rect x="1010" y="392" width="34" height="22" fill="#5B3E7A" opacity="0.2"/>
  <text x="286" y="436" text-anchor="end" font-family="Helvetica, Arial, sans-serif" font-size="22" fill="#1A1A1A" opacity="0.55">2012</text>
  <rect x="306" y="418" width="34" height="22" fill="#5B3E7A" opacity="0.85"/>
  <rect x="350" y="418" width="34" height="22" fill="#5B3E7A" opacity="0.85"/>
  <rect x="394" y="418" width="34" height="22" fill="#5B3E7A" opacity="0.85"/>
  <rect x="438" y="418" width="34" height="22" fill="#5B3E7A" opacity="0.85"/>
  <rect x="482" y="418" width="34" height="22" fill="#5B3E7A" opacity="0.85"/>
  <rect x="526" y="418" width="34" height="22" fill="#5B3E7A" opacity="0.85"/>
  <rect x="570" y="418" width="34" height="22" fill="#5B3E7A" opacity="0.85"/>
  <rect x="614" y="418" width="34" height="22" fill="#5B3E7A" opacity="0.85"/>
  <rect x="658" y="418" width="34" height="22" fill="#5B3E7A" opacity="0.85"/>
  <rect x="702" y="418" width="34" height="22" fill="#5B3E7A" opacity="0.85"/>
  <rect x="746" y="418" width="34" height="22" fill="#5B3E7A" opacity="0.2"/>
  <rect x="790" y="418" width="34" height="22" fill="#5B3E7A" opacity="0.2"/>
  <rect x="834" y="418" width="34" height="22" fill="#5B3E7A" opacity="0.2"/>
  <rect x="878" y="418" width="34" height="22" fill="#5B3E7A" opacity="0.2"/>
  <rect x="922" y="418" width="34" height="22" fill="#5B3E7A" opacity="0.2"/>
  <rect x="966" y="418" width="34" height="22" fill="#5B3E7A" opacity="0.2"/>
  <rect x="1010" y="418" width="34" height="22" fill="#5B3E7A" opacity="0.2"/>
  <rect x="1054" y="418" width="34" height="22" fill="#5B3E7A" opacity="0.2"/>
  <text x="286" y="462" text-anchor="end" font-family="Helvetica, Arial, sans-serif" font-size="22" fill="#1A1A1A" opacity="0.55">2013</text>
  <rect x="306" y="444" width="34" height="22" fill="#5B3E7A" opacity="0.85"/>
  <rect x="350" y="444" width="34" height="22" fill="#5B3E7A" opacity="0.85"/>
  <rect x="394" y="444" width="34" height="22" fill="#5B3E7A" opacity="0.85"/>
  <rect x="438" y="444" width="34" height="22" fill="#5B3E7A" opacity="0.85"/>
  <rect x="482" y="444" width="34" height="22" fill="#5B3E7A" opacity="0.85"/>
  <rect x="526" y="444" width="34" height="22" fill="#5B3E7A" opacity="0.85"/>
  <rect x="570" y="444" width="34" height="22" fill="#5B3E7A" opacity="0.85"/>
  <rect x="614" y="444" width="34" height="22" fill="#5B3E7A" opacity="0.85"/>
  <rect x="658" y="444" width="34" height="22" fill="#5B3E7A" opacity="0.85"/>
  <rect x="702" y="444" width="34" height="22" fill="#5B3E7A" opacity="0.2"/>
  <rect x="746" y="444" width="34" height="22" fill="#5B3E7A" opacity="0.2"/>
  <rect x="790" y="444" width="34" height="22" fill="#5B3E7A" opacity="0.2"/>
  <rect x="834" y="444" width="34" height="22" fill="#5B3E7A" opacity="0.2"/>
  <rect x="878" y="444" width="34" height="22" fill="#5B3E7A" opacity="0.2"/>
  <rect x="922" y="444" width="34" height="22" fill="#5B3E7A" opacity="0.2"/>
  <rect x="966" y="444" width="34" height="22" fill="#5B3E7A" opacity="0.2"/>
  <rect x="1010" y="444" width="34" height="22" fill="#5B3E7A" opacity="0.2"/>
  <rect x="1054" y="444" width="34" height="22" fill="#5B3E7A" opacity="0.2"/>
  <rect x="1098" y="444" width="34" height="22" fill="#5B3E7A" opacity="0.2"/>
  <text x="286" y="488" text-anchor="end" font-family="Helvetica, Arial, sans-serif" font-size="22" fill="#1A1A1A" opacity="0.55">2014</text>
  <rect x="306" y="470" width="34" height="22" fill="#5B3E7A" opacity="0.85"/>
  <rect x="350" y="470" width="34" height="22" fill="#5B3E7A" opacity="0.85"/>
  <rect x="394" y="470" width="34" height="22" fill="#5B3E7A" opacity="0.85"/>
  <rect x="438" y="470" width="34" height="22" fill="#5B3E7A" opacity="0.85"/>
  <rect x="482" y="470" width="34" height="22" fill="#5B3E7A" opacity="0.85"/>
  <rect x="526" y="470" width="34" height="22" fill="#5B3E7A" opacity="0.85"/>
  <rect x="570" y="470" width="34" height="22" fill="#5B3E7A" opacity="0.85"/>
  <rect x="614" y="470" width="34" height="22" fill="#5B3E7A" opacity="0.85"/>
  <rect x="658" y="470" width="34" height="22" fill="#5B3E7A" opacity="0.2"/>
  <rect x="702" y="470" width="34" height="22" fill="#5B3E7A" opacity="0.2"/>
  <rect x="746" y="470" width="34" height="22" fill="#5B3E7A" opacity="0.2"/>
  <rect x="790" y="470" width="34" height="22" fill="#5B3E7A" opacity="0.2"/>
  <rect x="834" y="470" width="34" height="22" fill="#5B3E7A" opacity="0.2"/>
  <rect x="878" y="470" width="34" height="22" fill="#5B3E7A" opacity="0.2"/>
  <rect x="922" y="470" width="34" height="22" fill="#5B3E7A" opacity="0.2"/>
  <rect x="966" y="470" width="34" height="22" fill="#5B3E7A" opacity="0.2"/>
  <rect x="1010" y="470" width="34" height="22" fill="#5B3E7A" opacity="0.2"/>
  <rect x="1054" y="470" width="34" height="22" fill="#5B3E7A" opacity="0.2"/>
  <text x="286" y="514" text-anchor="end" font-family="Helvetica, Arial, sans-serif" font-size="22" fill="#1A1A1A" opacity="0.55">2015</text>
  <rect x="306" y="496" width="34" height="22" fill="#5B3E7A" opacity="0.85"/>
  <rect x="350" y="496" width="34" height="22" fill="#5B3E7A" opacity="0.85"/>
  <rect x="394" y="496" width="34" height="22" fill="#5B3E7A" opacity="0.85"/>
  <rect x="438" y="496" width="34" height="22" fill="#5B3E7A" opacity="0.85"/>
  <rect x="482" y="496" width="34" height="22" fill="#5B3E7A" opacity="0.85"/>
  <rect x="526" y="496" width="34" height="22" fill="#5B3E7A" opacity="0.85"/>
  <rect x="570" y="496" width="34" height="22" fill="#5B3E7A" opacity="0.85"/>
  <rect x="614" y="496" width="34" height="22" fill="#5B3E7A" opacity="0.85"/>
  <rect x="658" y="496" width="34" height="22" fill="#5B3E7A" opacity="0.2"/>
  <rect x="702" y="496" width="34" height="22" fill="#5B3E7A" opacity="0.2"/>
  <rect x="746" y="496" width="34" height="22" fill="#5B3E7A" opacity="0.2"/>
  <rect x="790" y="496" width="34" height="22" fill="#5B3E7A" opacity="0.2"/>
  <rect x="834" y="496" width="34" height="22" fill="#5B3E7A" opacity="0.2"/>
  <rect x="878" y="496" width="34" height="22" fill="#5B3E7A" opacity="0.2"/>
  <rect x="922" y="496" width="34" height="22" fill="#5B3E7A" opacity="0.2"/>
  <rect x="966" y="496" width="34" height="22" fill="#5B3E7A" opacity="0.2"/>
  <rect x="1010" y="496" width="34" height="22" fill="#5B3E7A" opacity="0.2"/>
  <rect x="1054" y="496" width="34" height="22" fill="#5B3E7A" opacity="0.2"/>
  <rect x="1098" y="496" width="34" height="22" fill="#5B3E7A" opacity="0.2"/>
  <rect x="1142" y="496" width="34" height="22" fill="#5B3E7A" opacity="0.2"/>
  <text x="286" y="540" text-anchor="end" font-family="Helvetica, Arial, sans-serif" font-size="22" fill="#1A1A1A" opacity="0.55">2016</text>
  <rect x="306" y="522" width="34" height="22" fill="#5B3E7A" opacity="0.85"/>
  <rect x="350" y="522" width="34" height="22" fill="#5B3E7A" opacity="0.85"/>
  <rect x="394" y="522" width="34" height="22" fill="#5B3E7A" opacity="0.85"/>
  <rect x="438" y="522" width="34" height="22" fill="#5B3E7A" opacity="0.85"/>
  <rect x="482" y="522" width="34" height="22" fill="#5B3E7A" opacity="0.85"/>
  <rect x="526" y="522" width="34" height="22" fill="#5B3E7A" opacity="0.85"/>
  <rect x="570" y="522" width="34" height="22" fill="#5B3E7A" opacity="0.85"/>
  <rect x="614" y="522" width="34" height="22" fill="#5B3E7A" opacity="0.85"/>
  <rect x="658" y="522" width="34" height="22" fill="#5B3E7A" opacity="0.2"/>
  <rect x="702" y="522" width="34" height="22" fill="#5B3E7A" opacity="0.2"/>
  <rect x="746" y="522" width="34" height="22" fill="#5B3E7A" opacity="0.2"/>
  <rect x="790" y="522" width="34" height="22" fill="#5B3E7A" opacity="0.2"/>
  <rect x="834" y="522" width="34" height="22" fill="#5B3E7A" opacity="0.2"/>
  <rect x="878" y="522" width="34" height="22" fill="#5B3E7A" opacity="0.2"/>
  <rect x="922" y="522" width="34" height="22" fill="#5B3E7A" opacity="0.2"/>
  <rect x="966" y="522" width="34" height="22" fill="#5B3E7A" opacity="0.2"/>
  <rect x="1010" y="522" width="34" height="22" fill="#5B3E7A" opacity="0.2"/>
  <rect x="1054" y="522" width="34" height="22" fill="#5B3E7A" opacity="0.2"/>
  <rect x="1098" y="522" width="34" height="22" fill="#5B3E7A" opacity="0.2"/>
  <rect x="1142" y="522" width="34" height="22" fill="#5B3E7A" opacity="0.2"/>
  <rect x="1186" y="522" width="34" height="22" fill="#5B3E7A" opacity="0.2"/>
  <text x="286" y="566" text-anchor="end" font-family="Helvetica, Arial, sans-serif" font-size="22" fill="#1A1A1A" opacity="0.55">2017</text>
  <rect x="306" y="548" width="34" height="22" fill="#5B3E7A" opacity="0.85"/>
  <rect x="350" y="548" width="34" height="22" fill="#5B3E7A" opacity="0.85"/>
  <rect x="394" y="548" width="34" height="22" fill="#5B3E7A" opacity="0.85"/>
  <rect x="438" y="548" width="34" height="22" fill="#5B3E7A" opacity="0.85"/>
  <rect x="482" y="548" width="34" height="22" fill="#5B3E7A" opacity="0.85"/>
  <rect x="526" y="548" width="34" height="22" fill="#5B3E7A" opacity="0.85"/>
  <rect x="570" y="548" width="34" height="22" fill="#5B3E7A" opacity="0.2"/>
  <rect x="614" y="548" width="34" height="22" fill="#5B3E7A" opacity="0.2"/>
  <rect x="658" y="548" width="34" height="22" fill="#5B3E7A" opacity="0.2"/>
  <rect x="702" y="548" width="34" height="22" fill="#5B3E7A" opacity="0.2"/>
  <rect x="746" y="548" width="34" height="22" fill="#5B3E7A" opacity="0.2"/>
  <rect x="790" y="548" width="34" height="22" fill="#5B3E7A" opacity="0.2"/>
  <rect x="834" y="548" width="34" height="22" fill="#5B3E7A" opacity="0.2"/>
  <rect x="878" y="548" width="34" height="22" fill="#5B3E7A" opacity="0.2"/>
  <rect x="922" y="548" width="34" height="22" fill="#5B3E7A" opacity="0.2"/>
  <rect x="966" y="548" width="34" height="22" fill="#5B3E7A" opacity="0.2"/>
  <rect x="1010" y="548" width="34" height="22" fill="#5B3E7A" opacity="0.2"/>
  <rect x="1054" y="548" width="34" height="22" fill="#5B3E7A" opacity="0.2"/>
  <rect x="1098" y="548" width="34" height="22" fill="#5B3E7A" opacity="0.2"/>
  <rect x="1142" y="548" width="34" height="22" fill="#5B3E7A" opacity="0.2"/>
  <rect x="1186" y="548" width="34" height="22" fill="#5B3E7A" opacity="0.2"/>
  <text x="286" y="592" text-anchor="end" font-family="Helvetica, Arial, sans-serif" font-size="22" fill="#1A1A1A" opacity="0.55">2018</text>
  <rect x="306" y="574" width="34" height="22" fill="#5B3E7A" opacity="0.85"/>
  <rect x="350" y="574" width="34" height="22" fill="#5B3E7A" opacity="0.85"/>
  <rect x="394" y="574" width="34" height="22" fill="#5B3E7A" opacity="0.85"/>
  <rect x="438" y="574" width="34" height="22" fill="#5B3E7A" opacity="0.85"/>
  <rect x="482" y="574" width="34" height="22" fill="#5B3E7A" opacity="0.85"/>
  <rect x="526" y="574" width="34" height="22" fill="#5B3E7A" opacity="0.85"/>
  <rect x="570" y="574" width="34" height="22" fill="#5B3E7A" opacity="0.85"/>
  <rect x="614" y="574" width="34" height="22" fill="#5B3E7A" opacity="0.2"/>
  <rect x="658" y="574" width="34" height="22" fill="#5B3E7A" opacity="0.2"/>
  <rect x="702" y="574" width="34" height="22" fill="#5B3E7A" opacity="0.2"/>
  <rect x="746" y="574" width="34" height="22" fill="#5B3E7A" opacity="0.2"/>
  <rect x="790" y="574" width="34" height="22" fill="#5B3E7A" opacity="0.2"/>
  <rect x="834" y="574" width="34" height="22" fill="#5B3E7A" opacity="0.2"/>
  <rect x="878" y="574" width="34" height="22" fill="#5B3E7A" opacity="0.2"/>
  <rect x="922" y="574" width="34" height="22" fill="#5B3E7A" opacity="0.2"/>
  <rect x="966" y="574" width="34" height="22" fill="#5B3E7A" opacity="0.2"/>
  <rect x="1010" y="574" width="34" height="22" fill="#5B3E7A" opacity="0.2"/>
  <rect x="1054" y="574" width="34" height="22" fill="#5B3E7A" opacity="0.2"/>
  <rect x="1098" y="574" width="34" height="22" fill="#5B3E7A" opacity="0.2"/>
  <rect x="1142" y="574" width="34" height="22" fill="#5B3E7A" opacity="0.2"/>
  <rect x="1186" y="574" width="34" height="22" fill="#5B3E7A" opacity="0.2"/>
  <rect x="1230" y="574" width="34" height="22" fill="#5B3E7A" opacity="0.2"/>
  <text x="286" y="618" text-anchor="end" font-family="Helvetica, Arial, sans-serif" font-size="22" fill="#1A1A1A" opacity="0.55">2019</text>
  <rect x="306" y="600" width="34" height="22" fill="#5B3E7A" opacity="0.85"/>
  <rect x="350" y="600" width="34" height="22" fill="#5B3E7A" opacity="0.85"/>
  <rect x="394" y="600" width="34" height="22" fill="#5B3E7A" opacity="0.85"/>
  <rect x="438" y="600" width="34" height="22" fill="#5B3E7A" opacity="0.85"/>
  <rect x="482" y="600" width="34" height="22" fill="#5B3E7A" opacity="0.85"/>
  <rect x="526" y="600" width="34" height="22" fill="#5B3E7A" opacity="0.2"/>
  <rect x="570" y="600" width="34" height="22" fill="#5B3E7A" opacity="0.2"/>
  <rect x="614" y="600" width="34" height="22" fill="#5B3E7A" opacity="0.2"/>
  <rect x="658" y="600" width="34" height="22" fill="#5B3E7A" opacity="0.2"/>
  <rect x="702" y="600" width="34" height="22" fill="#5B3E7A" opacity="0.2"/>
  <rect x="746" y="600" width="34" height="22" fill="#5B3E7A" opacity="0.2"/>
  <rect x="790" y="600" width="34" height="22" fill="#5B3E7A" opacity="0.2"/>
  <rect x="834" y="600" width="34" height="22" fill="#5B3E7A" opacity="0.2"/>
  <rect x="878" y="600" width="34" height="22" fill="#5B3E7A" opacity="0.2"/>
  <rect x="922" y="600" width="34" height="22" fill="#5B3E7A" opacity="0.2"/>
  <rect x="966" y="600" width="34" height="22" fill="#5B3E7A" opacity="0.2"/>
  <rect x="1010" y="600" width="34" height="22" fill="#5B3E7A" opacity="0.2"/>
  <rect x="1054" y="600" width="34" height="22" fill="#5B3E7A" opacity="0.2"/>
  <rect x="1098" y="600" width="34" height="22" fill="#5B3E7A" opacity="0.2"/>
  <rect x="1142" y="600" width="34" height="22" fill="#5B3E7A" opacity="0.2"/>
  <rect x="1186" y="600" width="34" height="22" fill="#5B3E7A" opacity="0.2"/>
  <rect x="1230" y="600" width="34" height="22" fill="#5B3E7A" opacity="0.2"/>
  <text x="286" y="644" text-anchor="end" font-family="Helvetica, Arial, sans-serif" font-size="22" fill="#1A1A1A" opacity="0.55">2020</text>
  <rect x="306" y="626" width="34" height="22" fill="#5B3E7A" opacity="0.85"/>
  <rect x="350" y="626" width="34" height="22" fill="#5B3E7A" opacity="0.85"/>
  <rect x="394" y="626" width="34" height="22" fill="#5B3E7A" opacity="0.85"/>
  <rect x="438" y="626" width="34" height="22" fill="#5B3E7A" opacity="0.85"/>
  <rect x="482" y="626" width="34" height="22" fill="#5B3E7A" opacity="0.85"/>
  <rect x="526" y="626" width="34" height="22" fill="#5B3E7A" opacity="0.2"/>
  <rect x="570" y="626" width="34" height="22" fill="#5B3E7A" opacity="0.2"/>
  <rect x="614" y="626" width="34" height="22" fill="#5B3E7A" opacity="0.2"/>
  <rect x="658" y="626" width="34" height="22" fill="#5B3E7A" opacity="0.2"/>
  <rect x="702" y="626" width="34" height="22" fill="#5B3E7A" opacity="0.2"/>
  <rect x="746" y="626" width="34" height="22" fill="#5B3E7A" opacity="0.2"/>
  <rect x="790" y="626" width="34" height="22" fill="#5B3E7A" opacity="0.2"/>
  <rect x="834" y="626" width="34" height="22" fill="#5B3E7A" opacity="0.2"/>
  <rect x="878" y="626" width="34" height="22" fill="#5B3E7A" opacity="0.2"/>
  <rect x="922" y="626" width="34" height="22" fill="#5B3E7A" opacity="0.2"/>
  <rect x="966" y="626" width="34" height="22" fill="#5B3E7A" opacity="0.2"/>
  <rect x="1010" y="626" width="34" height="22" fill="#5B3E7A" opacity="0.2"/>
  <rect x="1054" y="626" width="34" height="22" fill="#5B3E7A" opacity="0.2"/>
  <rect x="1098" y="626" width="34" height="22" fill="#5B3E7A" opacity="0.2"/>
  <rect x="1142" y="626" width="34" height="22" fill="#5B3E7A" opacity="0.2"/>
  <rect x="1186" y="626" width="34" height="22" fill="#5B3E7A" opacity="0.2"/>
  <rect x="1230" y="626" width="34" height="22" fill="#5B3E7A" opacity="0.2"/>
  <rect x="1274" y="626" width="34" height="22" fill="#5B3E7A" opacity="0.2"/>
  <text x="286" y="670" text-anchor="end" font-family="Helvetica, Arial, sans-serif" font-size="22" fill="#1A1A1A" opacity="0.55">2021</text>
  <rect x="306" y="652" width="34" height="22" fill="#5B3E7A" opacity="0.85"/>
  <rect x="350" y="652" width="34" height="22" fill="#5B3E7A" opacity="0.85"/>
  <rect x="394" y="652" width="34" height="22" fill="#5B3E7A" opacity="0.85"/>
  <rect x="438" y="652" width="34" height="22" fill="#5B3E7A" opacity="0.85"/>
  <rect x="482" y="652" width="34" height="22" fill="#5B3E7A" opacity="0.2"/>
  <rect x="526" y="652" width="34" height="22" fill="#5B3E7A" opacity="0.2"/>
  <rect x="570" y="652" width="34" height="22" fill="#5B3E7A" opacity="0.2"/>
  <rect x="614" y="652" width="34" height="22" fill="#5B3E7A" opacity="0.2"/>
  <rect x="658" y="652" width="34" height="22" fill="#5B3E7A" opacity="0.2"/>
  <rect x="702" y="652" width="34" height="22" fill="#5B3E7A" opacity="0.2"/>
  <rect x="746" y="652" width="34" height="22" fill="#5B3E7A" opacity="0.2"/>
  <rect x="790" y="652" width="34" height="22" fill="#5B3E7A" opacity="0.2"/>
  <rect x="834" y="652" width="34" height="22" fill="#5B3E7A" opacity="0.2"/>
  <rect x="878" y="652" width="34" height="22" fill="#5B3E7A" opacity="0.2"/>
  <rect x="922" y="652" width="34" height="22" fill="#5B3E7A" opacity="0.2"/>
  <rect x="966" y="652" width="34" height="22" fill="#5B3E7A" opacity="0.2"/>
  <rect x="1010" y="652" width="34" height="22" fill="#5B3E7A" opacity="0.2"/>
  <rect x="1054" y="652" width="34" height="22" fill="#5B3E7A" opacity="0.2"/>
  <rect x="1098" y="652" width="34" height="22" fill="#5B3E7A" opacity="0.2"/>
  <rect x="1142" y="652" width="34" height="22" fill="#5B3E7A" opacity="0.2"/>
  <rect x="1186" y="652" width="34" height="22" fill="#5B3E7A" opacity="0.2"/>
  <rect x="1230" y="652" width="34" height="22" fill="#5B3E7A" opacity="0.2"/>
  <rect x="1274" y="652" width="34" height="22" fill="#5B3E7A" opacity="0.2"/>
  <text x="286" y="696" text-anchor="end" font-family="Helvetica, Arial, sans-serif" font-size="22" fill="#1A1A1A" opacity="0.55">2022</text>
  <rect x="306" y="678" width="34" height="22" fill="#5B3E7A" opacity="0.85"/>
  <rect x="350" y="678" width="34" height="22" fill="#5B3E7A" opacity="0.85"/>
  <rect x="394" y="678" width="34" height="22" fill="#5B3E7A" opacity="0.85"/>
  <rect x="438" y="678" width="34" height="22" fill="#5B3E7A" opacity="0.85"/>
  <rect x="482" y="678" width="34" height="22" fill="#5B3E7A" opacity="0.2"/>
  <rect x="526" y="678" width="34" height="22" fill="#5B3E7A" opacity="0.2"/>
  <rect x="570" y="678" width="34" height="22" fill="#5B3E7A" opacity="0.2"/>
  <rect x="614" y="678" width="34" height="22" fill="#5B3E7A" opacity="0.2"/>
  <rect x="658" y="678" width="34" height="22" fill="#5B3E7A" opacity="0.2"/>
  <rect x="702" y="678" width="34" height="22" fill="#5B3E7A" opacity="0.2"/>
  <rect x="746" y="678" width="34" height="22" fill="#5B3E7A" opacity="0.2"/>
  <rect x="790" y="678" width="34" height="22" fill="#5B3E7A" opacity="0.2"/>
  <rect x="834" y="678" width="34" height="22" fill="#5B3E7A" opacity="0.2"/>
  <rect x="878" y="678" width="34" height="22" fill="#5B3E7A" opacity="0.2"/>
  <rect x="922" y="678" width="34" height="22" fill="#5B3E7A" opacity="0.2"/>
  <rect x="966" y="678" width="34" height="22" fill="#5B3E7A" opacity="0.2"/>
  <rect x="1010" y="678" width="34" height="22" fill="#5B3E7A" opacity="0.2"/>
  <rect x="1054" y="678" width="34" height="22" fill="#5B3E7A" opacity="0.2"/>
  <rect x="1098" y="678" width="34" height="22" fill="#5B3E7A" opacity="0.2"/>
  <rect x="1142" y="678" width="34" height="22" fill="#5B3E7A" opacity="0.2"/>
  <rect x="1186" y="678" width="34" height="22" fill="#5B3E7A" opacity="0.2"/>
  <rect x="1230" y="678" width="34" height="22" fill="#5B3E7A" opacity="0.2"/>
  <rect x="1274" y="678" width="34" height="22" fill="#5B3E7A" opacity="0.2"/>
  <rect x="1318" y="678" width="34" height="22" fill="#5B3E7A" opacity="0.2"/>
  <text x="286" y="722" text-anchor="end" font-family="Helvetica, Arial, sans-serif" font-size="22" fill="#1A1A1A" opacity="0.55">2023</text>
  <rect x="306" y="704" width="34" height="22" fill="#5B3E7A" opacity="0.85"/>
  <rect x="350" y="704" width="34" height="22" fill="#5B3E7A" opacity="0.85"/>
  <rect x="394" y="704" width="34" height="22" fill="#5B3E7A" opacity="0.85"/>
  <rect x="438" y="704" width="34" height="22" fill="#5B3E7A" opacity="0.2"/>
  <rect x="482" y="704" width="34" height="22" fill="#5B3E7A" opacity="0.2"/>
  <rect x="526" y="704" width="34" height="22" fill="#5B3E7A" opacity="0.2"/>
  <rect x="570" y="704" width="34" height="22" fill="#5B3E7A" opacity="0.2"/>
  <rect x="614" y="704" width="34" height="22" fill="#5B3E7A" opacity="0.2"/>
  <rect x="658" y="704" width="34" height="22" fill="#5B3E7A" opacity="0.2"/>
  <rect x="702" y="704" width="34" height="22" fill="#5B3E7A" opacity="0.2"/>
  <rect x="746" y="704" width="34" height="22" fill="#5B3E7A" opacity="0.2"/>
  <rect x="790" y="704" width="34" height="22" fill="#5B3E7A" opacity="0.2"/>
  <rect x="834" y="704" width="34" height="22" fill="#5B3E7A" opacity="0.2"/>
  <rect x="878" y="704" width="34" height="22" fill="#5B3E7A" opacity="0.2"/>
  <rect x="922" y="704" width="34" height="22" fill="#5B3E7A" opacity="0.2"/>
  <rect x="966" y="704" width="34" height="22" fill="#5B3E7A" opacity="0.2"/>
  <rect x="1010" y="704" width="34" height="22" fill="#5B3E7A" opacity="0.2"/>
  <rect x="1054" y="704" width="34" height="22" fill="#5B3E7A" opacity="0.2"/>
  <rect x="1098" y="704" width="34" height="22" fill="#5B3E7A" opacity="0.2"/>
  <rect x="1142" y="704" width="34" height="22" fill="#5B3E7A" opacity="0.2"/>
  <rect x="1186" y="704" width="34" height="22" fill="#5B3E7A" opacity="0.2"/>
  <rect x="1230" y="704" width="34" height="22" fill="#5B3E7A" opacity="0.2"/>
  <rect x="1274" y="704" width="34" height="22" fill="#5B3E7A" opacity="0.2"/>
  <rect x="1318" y="704" width="34" height="22" fill="#5B3E7A" opacity="0.2"/>
  <text x="286" y="748" text-anchor="end" font-family="Helvetica, Arial, sans-serif" font-size="22" fill="#1A1A1A" opacity="0.55">2024</text>
  <rect x="306" y="730" width="34" height="22" fill="#5B3E7A" opacity="0.85"/>
  <rect x="350" y="730" width="34" height="22" fill="#5B3E7A" opacity="0.85"/>
  <rect x="394" y="730" width="34" height="22" fill="#5B3E7A" opacity="0.2"/>
  <rect x="438" y="730" width="34" height="22" fill="#5B3E7A" opacity="0.2"/>
  <rect x="482" y="730" width="34" height="22" fill="#5B3E7A" opacity="0.2"/>
  <rect x="526" y="730" width="34" height="22" fill="#5B3E7A" opacity="0.2"/>
  <rect x="570" y="730" width="34" height="22" fill="#5B3E7A" opacity="0.2"/>
  <rect x="614" y="730" width="34" height="22" fill="#5B3E7A" opacity="0.2"/>
  <rect x="658" y="730" width="34" height="22" fill="#5B3E7A" opacity="0.2"/>
  <rect x="702" y="730" width="34" height="22" fill="#5B3E7A" opacity="0.2"/>
  <rect x="746" y="730" width="34" height="22" fill="#5B3E7A" opacity="0.2"/>
  <rect x="790" y="730" width="34" height="22" fill="#5B3E7A" opacity="0.2"/>
  <rect x="834" y="730" width="34" height="22" fill="#5B3E7A" opacity="0.2"/>
  <rect x="878" y="730" width="34" height="22" fill="#5B3E7A" opacity="0.2"/>
  <rect x="922" y="730" width="34" height="22" fill="#5B3E7A" opacity="0.2"/>
  <rect x="966" y="730" width="34" height="22" fill="#5B3E7A" opacity="0.2"/>
  <rect x="1010" y="730" width="34" height="22" fill="#5B3E7A" opacity="0.2"/>
  <rect x="1054" y="730" width="34" height="22" fill="#5B3E7A" opacity="0.2"/>
  <rect x="1098" y="730" width="34" height="22" fill="#5B3E7A" opacity="0.2"/>
  <rect x="1142" y="730" width="34" height="22" fill="#5B3E7A" opacity="0.2"/>
  <rect x="1186" y="730" width="34" height="22" fill="#5B3E7A" opacity="0.2"/>
  <rect x="1230" y="730" width="34" height="22" fill="#5B3E7A" opacity="0.2"/>
  <rect x="1274" y="730" width="34" height="22" fill="#5B3E7A" opacity="0.2"/>
  <text x="286" y="774" text-anchor="end" font-family="Helvetica, Arial, sans-serif" font-size="22" fill="#1A1A1A" opacity="0.55">2025</text>
  <rect x="306" y="756" width="34" height="22" fill="#5B3E7A" opacity="0.85"/>
  <rect x="350" y="756" width="34" height="22" fill="#5B3E7A" opacity="0.85"/>
  <rect x="394" y="756" width="34" height="22" fill="#5B3E7A" opacity="0.2"/>
  <rect x="438" y="756" width="34" height="22" fill="#5B3E7A" opacity="0.2"/>
  <rect x="482" y="756" width="34" height="22" fill="#5B3E7A" opacity="0.2"/>
  <rect x="526" y="756" width="34" height="22" fill="#5B3E7A" opacity="0.2"/>
  <rect x="570" y="756" width="34" height="22" fill="#5B3E7A" opacity="0.2"/>
  <rect x="614" y="756" width="34" height="22" fill="#5B3E7A" opacity="0.2"/>
  <rect x="658" y="756" width="34" height="22" fill="#5B3E7A" opacity="0.2"/>
  <rect x="702" y="756" width="34" height="22" fill="#5B3E7A" opacity="0.2"/>
  <rect x="746" y="756" width="34" height="22" fill="#5B3E7A" opacity="0.2"/>
  <rect x="790" y="756" width="34" height="22" fill="#5B3E7A" opacity="0.2"/>
  <rect x="834" y="756" width="34" height="22" fill="#5B3E7A" opacity="0.2"/>
  <rect x="878" y="756" width="34" height="22" fill="#5B3E7A" opacity="0.2"/>
  <rect x="922" y="756" width="34" height="22" fill="#5B3E7A" opacity="0.2"/>
  <rect x="966" y="756" width="34" height="22" fill="#5B3E7A" opacity="0.2"/>
  <rect x="1010" y="756" width="34" height="22" fill="#5B3E7A" opacity="0.2"/>
  <rect x="1054" y="756" width="34" height="22" fill="#5B3E7A" opacity="0.2"/>
  <rect x="1098" y="756" width="34" height="22" fill="#5B3E7A" opacity="0.2"/>
  <rect x="1142" y="756" width="34" height="22" fill="#5B3E7A" opacity="0.2"/>
  <rect x="1186" y="756" width="34" height="22" fill="#5B3E7A" opacity="0.2"/>
  <rect x="1230" y="756" width="34" height="22" fill="#5B3E7A" opacity="0.2"/>
  <rect x="1274" y="756" width="34" height="22" fill="#5B3E7A" opacity="0.2"/>
  <rect x="1318" y="756" width="34" height="22" fill="#5B3E7A" opacity="0.2"/>
  <text x="286" y="800" text-anchor="end" font-family="Helvetica, Arial, sans-serif" font-size="22" fill="#1A1A1A" opacity="0.55">2026</text>
  <rect x="306" y="782" width="34" height="22" fill="#5B3E7A" opacity="0.85"/>
  <rect x="350" y="782" width="34" height="22" fill="#5B3E7A" opacity="0.85"/>
  <rect x="394" y="782" width="34" height="22" fill="#5B3E7A" opacity="0.2"/>
  <rect x="438" y="782" width="34" height="22" fill="#5B3E7A" opacity="0.2"/>
  <rect x="482" y="782" width="34" height="22" fill="#5B3E7A" opacity="0.2"/>
  <rect x="526" y="782" width="34" height="22" fill="#5B3E7A" opacity="0.2"/>
  <rect x="570" y="782" width="34" height="22" fill="#5B3E7A" opacity="0.2"/>
  <rect x="614" y="782" width="34" height="22" fill="#5B3E7A" opacity="0.2"/>
  <rect x="658" y="782" width="34" height="22" fill="#5B3E7A" opacity="0.2"/>
  <rect x="702" y="782" width="34" height="22" fill="#5B3E7A" opacity="0.2"/>
  <rect x="746" y="782" width="34" height="22" fill="#5B3E7A" opacity="0.2"/>
  <rect x="790" y="782" width="34" height="22" fill="#5B3E7A" opacity="0.2"/>
  <rect x="834" y="782" width="34" height="22" fill="#5B3E7A" opacity="0.2"/>
  <rect x="878" y="782" width="34" height="22" fill="#5B3E7A" opacity="0.2"/>
  <rect x="922" y="782" width="34" height="22" fill="#5B3E7A" opacity="0.2"/>
  <rect x="966" y="782" width="34" height="22" fill="#5B3E7A" opacity="0.2"/>
  <rect x="1010" y="782" width="34" height="22" fill="#5B3E7A" opacity="0.2"/>
  <rect x="1054" y="782" width="34" height="22" fill="#5B3E7A" opacity="0.2"/>
  <rect x="1098" y="782" width="34" height="22" fill="#5B3E7A" opacity="0.2"/>
  <rect x="1142" y="782" width="34" height="22" fill="#5B3E7A" opacity="0.2"/>
  <rect x="1186" y="782" width="34" height="22" fill="#5B3E7A" opacity="0.2"/>
  <rect x="1230" y="782" width="34" height="22" fill="#5B3E7A" opacity="0.2"/>
  <rect x="1274" y="782" width="34" height="22" fill="#5B3E7A" opacity="0.2"/>
  <rect x="1318" y="782" width="34" height="22" fill="#5B3E7A" opacity="0.2"/>
  <text x="240" y="810" font-family="Helvetica, Arial, sans-serif" font-size="24" fill="#1A1A1A" opacity="0.6">Carre plein : compagnie du plateau — carre pale : compagnie exterieure</text>
</svg>
